<svg version="1.1" viewBox="0.0 0.0 960.0 720.0" fill="none" stroke="none" stroke-linecap="square" stroke-miterlimit="10" xmlns:xlink="http://www.w3.org/1999/xlink" xmlns="http://www.w3.org/2000/svg"><clipPath id="p.0"><path d="m0 0l960.0 0l0 720.0l-960.0 0l0 -720.0z" clip-rule="nonzero"/></clipPath><g clip-path="url(#p.0)"><path fill="#000000" fill-opacity="0.0" d="m0 0l960.0 0l0 720.0l-960.0 0z" fill-rule="evenodd"/><path fill="#000000" fill-opacity="0.0" d="m0 0l960.0 0l0 240.62993l-960.0 0z" fill-rule="evenodd"/><path fill="#ff5700" d="m91.8342 133.925q-1.625 7.921875 -3.96875 16.46875q-2.328125 8.546875 -6.203125 15.484375q-3.875 6.921875 -9.375 11.515625q-5.484375 4.59375 -13.03125 4.59375q-5.046875 0 -10.90625 -2.15625q-5.84375 -2.171875 -12.859375 -7.390625l12.421875 -27.71875q0.890625 1.796875 3.5 3.15625q2.625 1.34375 5.671875 1.34375q2.171875 0 3.875 -3.59375q1.703125 -3.609375 2.96875 -8.375q1.265625 -4.765625 1.984375 -9.8125q0.71875 -5.046875 1.078125 -8.09375q3.421875 -17.46875 6.484375 -34.828125q3.0625 -17.375 7.1875 -34.65625q8.109375 -0.71875 15.9375 -2.25q7.828125 -1.53125 15.75 -3.6875q-2.703125 9.171875 -5.578125 20.875q-2.875 11.703125 -5.578125 23.953125q-2.703125 12.234375 -5.140625 24.03125q-2.421875 11.78125 -4.21875 21.140625zm-6.6706085 46.796875q7.921875 -23.9375 15.125 -46.984375q3.0625 -9.71875 6.296875 -20.328125q3.25 -10.625 6.484375 -21.0625q3.234375 -10.453125 6.015625 -20.171875q2.796875 -9.71875 4.96875 -18.0q9.890625 0 18.703125 -1.078125q8.828125 -1.078125 19.09375 -1.984375q-0.546875 3.96875 -1.171875 8.921875q-0.625 4.953125 -1.4375 10.359375q-0.8125 5.390625 -1.71875 11.15625q-0.890625 5.75 -2.15625 14.75q-1.25 9.0 -3.421875 22.5l2.34375 0q5.21875 -13.6875 8.640625 -22.765625q3.421875 -9.09375 5.578125 -14.84375q2.15625 -5.765625 4.40625 -11.25q2.25 -5.5 4.3125 -10.453125q2.078125 -4.953125 3.890625 -8.734375q4.5 -0.359375 8.453125 -0.890625q3.953125 -0.546875 7.90625 -1.171875q3.96875 -0.625 8.015625 -1.25q4.0625 -0.640625 8.921875 -1.546875q-1.796875 10.453125 -3.421875 21.4375q-1.625 10.96875 -2.890625 21.859375q-1.25 10.890625 -2.421875 21.515625q-1.171875 10.609375 -2.0625 20.15625q-2.171875 22.3125 -3.78125 43.5625l-31.328125 5.578125q0 -0.90625 0.265625 -4.859375q0.28125 -3.96875 0.71875 -9.71875q0.453125 -5.765625 1.265625 -12.78125q0.8125 -7.03125 1.625 -14.046875q0.8125 -7.015625 1.703125 -13.578125q0.90625 -6.578125 1.796875 -11.265625l-1.609375 0q-2.515625 7.5625 -5.578125 15.9375q-3.0625 8.375 -6.21875 17.015625q-3.140625 8.640625 -6.203125 16.921875q-3.0625 8.265625 -5.40625 15.828125q-6.296875 0.1875 -10.796875 0.453125q-4.5 0.265625 -10.4375 0.625l5.75 -66.78125l-2.6875 0q-0.359375 2.34375 -1.8125 7.84375q-1.4375 5.484375 -3.328125 12.59375q-1.890625 7.109375 -4.046875 14.765625q-2.15625 7.640625 -4.046875 14.21875q-1.890625 6.5625 -3.15625 10.796875q-1.25 4.234375 -1.4375 4.765625l-29.703125 1.984375zm217.62315 -96.296875q0 14.75 -3.15625 27.8125q-3.140625 13.046875 -8.359375 23.9375q-5.21875 10.890625 -12.15625 19.4375q-6.921875 8.546875 -14.484375 14.578125q-7.5625 6.03125 -15.312485 9.1875q-7.734375 3.140625 -14.75 3.140625q-5.9375 0 -10.796875 -2.25q-4.859375 -2.25 -8.46875 -6.65625q-3.59375 -4.40625 -5.671875 -11.328125q-2.0625 -6.9375 -2.0625 -16.671875q0 -10.078125 2.515625 -21.234375q2.53125 -11.15625 6.84375 -22.140625q4.328125 -10.984375 10.625 -20.875q6.296875 -9.90625 13.859375 -17.546875q7.5625 -7.65625 16.20311 -12.15625q8.640625 -4.5 18.0 -4.5q8.09375 0 13.40625 3.328125q5.3125 3.328125 8.28125 8.640625q2.96875 5.3125 4.21875 11.96875q1.265625 6.65625 1.265625 13.328125zm-68.39061 56.515625q0 1.984375 0.71875 4.140625q0.71875 2.15625 1.96875 3.78125q1.265625 1.625 3.15625 2.796875q1.890625 1.15625 4.046875 1.15625q8.109375 0 14.406235 -5.578125q6.296875 -5.578125 10.4375 -13.671875q4.140625 -8.109375 6.390625 -17.28125q2.25 -9.1875 2.25 -16.75q0 -2.15625 -0.28125 -4.671875q-0.265625 -2.515625 -1.078125 -4.671875q-0.796875 -2.171875 -2.515625 -3.703125q-1.703125 -1.53125 -4.59375 -1.53125q-5.75 0 -10.609375 2.890625q-4.8593597 2.875 -8.73436 7.640625q-3.875 4.765625 -6.75 10.796875q-2.875 6.03125 -4.953125 12.25q-2.0625 6.203125 -2.96875 12.140625q-0.890625 5.9375 -0.890625 10.265625zm70.19316 38.15625l8.28125 -36.171875q0 -7.75 -0.28125 -16.828125q-0.265625 -9.09375 -0.8125 -18.265625q-0.53125 -9.1875 -1.078125 -17.734375q-0.53125 -8.5625 -0.890625 -15.125q-0.359375 -6.578125 -0.71875 -10.53125q-0.359375 -3.953125 -0.359375 -3.953125l29.34375 -11.171875l0 21.96875q0 4.5 0 9.1875q0 4.671875 -0.09375 9.171875q-0.09375 4.5 -0.09375 8.46875q0 3.953125 0 6.640625q2.34375 -6.109375 5.671875 -15.109375q3.328125 -9.0 6.21875 -17.46875q3.40625 -9.890625 7.015625 -20.875l27.890625 6.296875q-7.734375 15.484375 -15.109375 30.78125q-3.0625 6.65625 -6.484375 13.765625q-3.421875 7.109375 -6.84375 14.234375q-3.421875 7.109375 -6.65625 13.765625q-3.234375 6.65625 -5.9375 12.421875q-0.90625 4.671875 -2.265625 10.25q-1.34375 5.578125 -2.59375 10.625q-1.625 5.9375 -3.421875 11.875l-30.78125 3.78125zm134.99503 -41.75q0 10.078125 -3.875 18.265625q-3.859375 8.1875 -10.4375 14.125q-6.5625 5.9375 -15.46875 9.1875q-8.90625 3.234375 -19.171875 3.234375q-7.203125 0 -14.40625 -3.859375q-7.1875 -3.875 -13.859375 -12.34375l13.328125 -26.09375q1.25 2.34375 3.765625 4.78125q2.53125 2.421875 5.671875 4.21875q3.15625 1.796875 6.296875 2.96875q3.15625 1.171875 5.6875 1.171875q2.15625 0 4.484375 -0.71875q2.34375 -0.71875 4.328125 -2.15625q1.984375 -1.453125 3.15625 -3.34375q1.171875 -1.890625 1.171875 -4.40625q0 -4.3125 -2.796875 -8.0q-2.796875 -3.703125 -6.9375 -7.03125q-4.125 -3.328125 -9.0 -6.75q-4.859375 -3.421875 -8.90625 -7.203125q-4.046875 -3.78125 -6.9375 -8.453125q-2.875 -4.6875 -2.875 -10.4375q0 -9.359375 5.578125 -17.453125q5.59375 -8.109375 13.953125 -13.953125q8.375 -5.859375 18.265625 -9.28125q9.90625 -3.421875 18.734375 -3.421875q4.859375 0 9.171875 1.171875q4.328125 1.171875 7.46875 3.78125q3.15625 2.609375 5.046875 6.578125q1.890625 3.953125 1.890625 9.890625q0 2.53125 -0.453125 5.046875q-0.453125 2.515625 -0.8125 5.390625l-26.09375 7.5625q0.359375 -1.4375 0.625 -2.875q0.265625 -1.4375 0.265625 -2.875q0 -5.40625 -1.890625 -7.828125q-1.890625 -2.4375 -4.9375 -2.4375q-1.453125 0 -3.515625 1.078125q-2.0625 1.078125 -4.140625 2.796875q-2.0625 1.703125 -3.515625 4.046875q-1.4375 2.34375 -1.4375 5.03125q0 4.328125 2.421875 7.21875q2.4375 2.875 6.03125 5.390625q3.609375 2.515625 7.84375 5.125q4.234375 2.609375 7.828125 6.75q3.59375 4.140625 6.015625 10.359375q2.4375 6.203125 2.4375 15.75zm98.462555 -52.921875q0 14.75 -3.15625 27.8125q-3.140625 13.046875 -8.359375 23.9375q-5.21875 10.890625 -12.15625 19.4375q-6.9219055 8.546875 -14.4844055 14.578125q-7.5625 6.03125 -15.3125 9.1875q-7.734375 3.140625 -14.75 3.140625q-5.9375 0 -10.796875 -2.25q-4.859375 -2.25 -8.46875 -6.65625q-3.59375 -4.40625 -5.671875 -11.328125q-2.0625 -6.9375 -2.0625 -16.671875q0 -10.078125 2.515625 -21.234375q2.53125 -11.15625 6.84375 -22.140625q4.328125 -10.984375 10.625 -20.875q6.296875 -9.90625 13.859375 -17.546875q7.5625 -7.65625 16.203125 -12.15625q8.640625 -4.5 18.0 -4.5q8.0937805 0 13.4062805 3.328125q5.3125 3.328125 8.28125 8.640625q2.96875 5.3125 4.21875 11.96875q1.265625 6.65625 1.265625 13.328125zm-68.390656 56.515625q0 1.984375 0.71875 4.140625q0.71875 2.15625 1.96875 3.78125q1.265625 1.625 3.15625 2.796875q1.890625 1.15625 4.046875 1.15625q8.109375 0 14.40625 -5.578125q6.296875 -5.578125 10.4375 -13.671875q4.140625 -8.109375 6.390625 -17.28125q2.2500305 -9.1875 2.2500305 -16.75q0 -2.15625 -0.28125 -4.671875q-0.265625 -2.515625 -1.0781555 -4.671875q-0.796875 -2.171875 -2.515625 -3.703125q-1.703125 -1.53125 -4.59375 -1.53125q-5.75 0 -10.609375 2.890625q-4.859375 2.875 -8.734375 7.640625q-3.875 4.765625 -6.75 10.796875q-2.875 6.03125 -4.953125 12.25q-2.0625 6.203125 -2.96875 12.140625q-0.890625 5.9375 -0.890625 10.265625zm57.24002 41.765625q5.390625 -25.921875 10.25 -50.21875q1.796875 -10.453125 3.859375 -21.609375q2.078125 -11.15625 3.875 -22.046875q1.8125 -10.890625 3.25 -20.875q1.4375 -10.0 2.15625 -18.09375q2.34375 0.171875 3.953125 0.171875q1.625 0 3.796875 0q2.515625 0 6.109375 -0.078125q3.609375 -0.09375 7.203125 -0.265625q3.59375 -0.1875 7.734375 -0.375q2.53125 12.609375 4.5 24.296875q1.984375 10.265625 4.046875 21.078125q2.078125 10.796875 3.703125 18.34375q0.71875 -3.59375 1.609375 -8.359375q0.90625 -4.78125 1.984375 -10.0q1.078125 -5.21875 2.0625 -10.515625q1.0 -5.3125 2.078125 -10.546875q2.515625 -11.6875 5.21875 -24.109375l21.96875 -2.703125q-6.125 27.546875 -10.8125 52.203125q-2.15625 10.609375 -4.234375 21.5q-2.0625 10.890625 -3.859375 20.890625q-1.796875 9.984375 -3.0625 18.546875q-1.25 8.546875 -1.984375 14.296875q-0.53125 0 -4.21875 0.8125q-3.6875 0.8125 -8.46875 1.890625q-4.765625 1.078125 -9.546875 2.15625q-4.765625 1.078125 -7.09375 1.984375q-1.078125 -14.40625 -2.34375 -27.359375q-0.546875 -5.578125 -1.171875 -11.421875q-0.625 -5.859375 -1.34375 -11.25q-0.71875 -5.40625 -1.453125 -10.078125q-0.71875 -4.6875 -1.4375 -8.109375q-0.53125 3.421875 -1.4375 7.921875q-0.890625 4.5 -1.796875 9.546875q-0.90625 5.03125 -1.8125 10.53125q-0.890625 5.484375 -1.96875 10.515625q-2.34375 12.0625 -5.03125 25.203125l-26.28125 6.125zm117.89136 -15.3125q0 3.421875 -1.53125 6.84375q-1.53125 3.421875 -4.40625 6.03125q-2.875 2.609375 -7.203125 4.140625q-4.3125 1.53125 -9.890625 1.53125q-3.78125 0 -6.84375 -1.4375q-3.0625 -1.4375 -4.953125 -3.859375q-1.890625 -2.4375 -2.96875 -5.5q-1.078125 -3.0625 -1.078125 -6.125q0 -3.421875 1.078125 -6.5625q1.078125 -3.15625 3.328125 -5.578125q2.25 -2.4375 5.578125 -4.046875q3.328125 -1.625 8.015625 -1.625q10.4375 0 15.65625 4.953125q5.21875 4.9375 5.21875 11.234375zm77.04187 -24.296875q-4.3125 9.90625 -9.625 17.203125q-5.3125 7.28125 -11.171875 12.234375q-5.84375 4.953125 -11.78125 7.296875q-5.9375 2.328125 -11.515625 2.328125q-5.578125 0 -10.171875 -2.515625q-4.59375 -2.53125 -8.015625 -7.5625q-3.421875 -5.046875 -5.5 -12.421875q-2.0625 -7.375 -2.0625 -17.28125q0 -16.921875 4.671875 -33.390625q4.6875 -16.46875 13.140625 -29.609375q8.46875 -13.140625 20.078125 -21.140625q11.609375 -8.015625 25.65625 -8.015625q4.3125 0 8.265625 1.796875q3.96875 1.796875 6.84375 5.046875q2.890625 3.234375 4.59375 7.921875q1.71875 4.671875 1.71875 10.4375q0 1.078125 0 2.25q0 1.171875 -0.1875 2.421875l-23.578125 6.296875q-2.15625 -4.5 -5.03125 -4.5q-2.890625 0 -6.046875 3.34375q-3.140625 3.328125 -6.203125 8.640625q-3.0625 5.296875 -5.9375 11.875q-2.875 6.5625 -5.046875 13.234375q-2.15625 6.65625 -3.515625 12.6875q-1.34375 6.03125 -1.34375 9.8125q0 5.75 1.53125 8.09375q1.53125 2.34375 4.0625 2.34375q1.96875 0 4.484375 -1.53125q2.53125 -1.53125 4.6875 -3.953125q2.15625 -2.4375 3.953125 -5.5q1.8125 -3.0625 2.53125 -6.125l20.515625 8.28125zm98.45752 -58.671875q0 14.75 -3.15625 27.8125q-3.140625 13.046875 -8.359375 23.9375q-5.21875 10.890625 -12.15625 19.4375q-6.921875 8.546875 -14.484375 14.578125q-7.5625 6.03125 -15.3125 9.1875q-7.734375 3.140625 -14.75 3.140625q-5.9375 0 -10.796875 -2.25q-4.859375 -2.25 -8.46875 -6.65625q-3.59375 -4.40625 -5.671875 -11.328125q-2.0625 -6.9375 -2.0625 -16.671875q0 -10.078125 2.515625 -21.234375q2.53125 -11.15625 6.84375 -22.140625q4.328125 -10.984375 10.625 -20.875q6.296875 -9.90625 13.859375 -17.546875q7.5625 -7.65625 16.203125 -12.15625q8.640625 -4.5 18.0 -4.5q8.09375 0 13.40625 3.328125q5.3125 3.328125 8.28125 8.640625q2.96875 5.3125 4.21875 11.96875q1.265625 6.65625 1.265625 13.328125zm-68.390625 56.515625q0 1.984375 0.71875 4.140625q0.71875 2.15625 1.96875 3.78125q1.265625 1.625 3.15625 2.796875q1.890625 1.15625 4.046875 1.15625q8.109375 0 14.40625 -5.578125q6.296875 -5.578125 10.4375 -13.671875q4.140625 -8.109375 6.390625 -17.28125q2.25 -9.1875 2.25 -16.75q0 -2.15625 -0.28125 -4.671875q-0.265625 -2.515625 -1.078125 -4.671875q-0.796875 -2.171875 -2.515625 -3.703125q-1.703125 -1.53125 -4.59375 -1.53125q-5.75 0 -10.609375 2.890625q-4.859375 2.875 -8.734375 7.640625q-3.875 4.765625 -6.75 10.796875q-2.875 6.03125 -4.953125 12.25q-2.0625 6.203125 -2.96875 12.140625q-0.890625 5.9375 -0.890625 10.265625zm50.92749 39.78125q7.921875 -23.9375 15.125 -46.984375q3.0625 -9.71875 6.296875 -20.328125q3.25 -10.625 6.484375 -21.0625q3.234375 -10.453125 6.015625 -20.171875q2.796875 -9.71875 4.96875 -18.0q9.890625 0 18.703125 -1.078125q8.828125 -1.078125 19.09375 -1.984375q-0.546875 3.96875 -1.171875 8.921875q-0.625 4.953125 -1.4375 10.359375q-0.8125 5.390625 -1.71875 11.15625q-0.890625 5.75 -2.15625 14.75q-1.25 9.0 -3.421875 22.5l2.34375 0q5.21875 -13.6875 8.640625 -22.765625q3.421875 -9.09375 5.578125 -14.84375q2.15625 -5.765625 4.40625 -11.25q2.25 -5.5 4.3125 -10.453125q2.078125 -4.953125 3.890625 -8.734375q4.5 -0.359375 8.453125 -0.890625q3.953125 -0.546875 7.90625 -1.171875q3.96875 -0.625 8.015625 -1.25q4.0625 -0.640625 8.921875 -1.546875q-1.796875 10.453125 -3.421875 21.4375q-1.625 10.96875 -2.890625 21.859375q-1.25 10.890625 -2.421875 21.515625q-1.171875 10.609375 -2.0625 20.15625q-2.171875 22.3125 -3.78125 43.5625l-31.328125 5.578125q0 -0.90625 0.265625 -4.859375q0.28125 -3.96875 0.71875 -9.71875q0.453125 -5.765625 1.265625 -12.78125q0.8125 -7.03125 1.625 -14.046875q0.8125 -7.015625 1.703125 -13.578125q0.90625 -6.578125 1.796875 -11.265625l-1.609375 0q-2.515625 7.5625 -5.578125 15.9375q-3.0625 8.375 -6.21875 17.015625q-3.140625 8.640625 -6.203125 16.921875q-3.0625 8.265625 -5.40625 15.828125q-6.296875 0.1875 -10.796875 0.453125q-4.5 0.265625 -10.4375 0.625l5.75 -66.78125l-2.6875 0q-0.359375 2.34375 -1.8125 7.84375q-1.4375 5.484375 -3.328125 12.59375q-1.890625 7.109375 -4.046875 14.765625q-2.15625 7.640625 -4.046875 14.21875q-1.890625 6.5625 -3.15625 10.796875q-1.25 4.234375 -1.4375 4.765625l-29.703125 1.984375z" fill-rule="nonzero"/></g></svg>